<svg width="24" height="24" viewBox="0 0 24 24" fill="#9299A2" xmlns="http://www.w3.org/2000/svg">
<mask id="mask0_324_26755" style="mask-type:alpha" maskUnits="userSpaceOnUse" x="1" y="5" width="22" height="14">
<path fill-rule="evenodd" clip-rule="evenodd" d="M1 5H23V14C23 16.7614 20.7614 19 18 19H1V5ZM14 12C14 10.3431 15.3431 9 17 9C18.6569 9 20 10.3431 20 12C20 13.6569 18.6569 15 17 15C15.3431 15 14 13.6569 14 12ZM6 10C6 9.44772 6.44772 9 7 9C7.55228 9 8 9.44772 8 10V11H9C9.55228 11 10 11.4477 10 12C10 12.5523 9.55228 13 9 13H8V14C8 14.5523 7.55228 15 7 15C6.44772 15 6 14.5523 6 14V13H5C4.44772 13 4 12.5523 4 12C4 11.4477 4.44772 11 5 11H6V10Z" fill="black"/>
<path opacity="0.3" d="M14 12C14 10.3431 15.3431 9 17 9C18.6569 9 20 10.3431 20 12C20 13.6569 18.6569 15 17 15C15.3431 15 14 13.6569 14 12Z" fill="black"/>
</mask>
<g mask="url(#mask0_324_26755)">
<path d="M0 0H24V24H0V0Z" fill="current"/>
</g>
</svg>
