<svg width="24" height="24" viewBox="0 0 24 24" fill="#9299A2" xmlns="http://www.w3.org/2000/svg">
<mask id="mask0_324_26765" style="mask-type:alpha" maskUnits="userSpaceOnUse" x="2" y="4" width="20" height="16">
<path opacity="0.6" d="M2 19.5H18C19.1046 19.5 20.1046 19.0523 20.8284 18.3284L15.5 13L12 16.5L8.5 13L2 19.5Z" fill="url(#paint0_linear_324_26765)"/>
<g opacity="0.9">
<path d="M2.3535 6.85349C2.12642 7.35564 2 7.91305 2 8.49999V19.5L8.5 13L2.3535 6.85349Z" fill="black"/>
<path d="M22 15.5V6.5L15.5 13L20.8284 18.3284C21.5523 17.6046 22 16.6046 22 15.5Z" fill="black"/>
</g>
<path opacity="0.45" d="M6.00001 4.5C4.37781 4.5 2.98115 5.46566 2.35352 6.8535L12 16.5L22 6.5V4.5H6.00001Z" fill="url(#paint1_linear_324_26765)"/>
</mask>
<g mask="url(#mask0_324_26765)">
<rect width="24" height="24" fill="current"/>
</g>
<defs>
<linearGradient id="paint0_linear_324_26765" x1="12" y1="19.5" x2="11.7958" y2="13.507" gradientUnits="userSpaceOnUse">
<stop stop-opacity="0.6"/>
<stop offset="1"/>
</linearGradient>
<linearGradient id="paint1_linear_324_26765" x1="12" y1="16.5" x2="12.4596" y2="4.49845" gradientUnits="userSpaceOnUse">
<stop stop-opacity="0.6"/>
<stop offset="1"/>
</linearGradient>
</defs>
</svg>
