<svg width="24" height="24" viewBox="0 0 24 24" fill="#9299A2" xmlns="http://www.w3.org/2000/svg">
<mask id="mask0_324_26768" style="mask-type:alpha" maskUnits="userSpaceOnUse" x="2" y="2" width="20" height="20">
<path d="M6.0505 2.39343L9.16521 5.96791C9.89906 6.81008 9.80082 8.09011 8.94706 8.81043L8.17177 9.46456C8.17177 9.46456 9.00024 11 11.0002 13C13.0002 15 14.5357 15.8285 14.5357 15.8285L15.1898 15.0532C15.9101 14.1994 17.1902 14.1012 18.0323 14.8351L21.6068 17.9498L19.0189 20.5377C17.2583 22.2983 14.4688 22.4966 12.5356 20.9275C10.8723 19.5774 8.92827 17.928 7.50024 16.5C6.0722 15.072 4.42282 13.128 3.07273 11.4646C1.5036 9.53138 1.70196 6.74191 3.46259 4.98131L6.0505 2.39343Z" fill="black"/>
</mask>
<g mask="url(#mask0_324_26768)">
<path d="M0 0H24V24H0V0Z" fill="current"/>
</g>
</svg>
