<svg width="16" height="16" viewBox="0 0 16 16" fill="#9299A2" xmlns="http://www.w3.org/2000/svg">
<mask id="mask0_178_1395" style="mask-type:alpha" maskUnits="userSpaceOnUse" x="0" y="0" width="16" height="16">
<path fill-rule="evenodd" clip-rule="evenodd" d="M2 4.00004C2 2.89547 2.89543 2.00001 4 2.00001H5.625C5.92497 1.27686 6.30903 1 7.30717 1H8.81783C9.79319 1 10.1762 1.30435 10.5 2.00001L12 2.00001C13.1046 2 14 2.89546 14 4.00003L2 4.00004ZM5.22321 12.1448L5.22259 12.1359L5.22189 12.127L4.66298 7H11.337L10.7781 12.127L10.7774 12.1359L10.7768 12.1448C10.7355 12.7389 10.3113 13 10.0295 13H5.9705C5.68872 13 5.26447 12.7389 5.22321 12.1448ZM3.22801 12.2834L2.65684 7L2.5 5H4.50614H11.4939H13.5L13.3432 7L12.772 12.2834C12.6656 13.8151 11.4695 15 10.0295 15H5.9705C4.53053 15 3.33438 13.8151 3.22801 12.2834Z" fill="black"/>
</mask>
<g mask="url(#mask0_178_1395)">
<rect width="16" height="16" fill="current"/>
</g>
</svg>
