<svg width="297" height="263" viewBox="0 0 297 263" fill="#82C3FF" xmlns="http://www.w3.org/2000/svg">
<path d="M64.352 111.144L62.144 95.56L56.768 110.28C56.32 111.56 56.096 112.392 56.096 112.776C55.616 113.032 54.976 113.16 54.176 113.16C53.76 113.16 53.408 113.032 53.12 112.744C52.832 112.456 52.544 111.944 52.256 111.176L46.4 95.56L44.384 110.28C44.288 111.144 44.256 111.624 44.256 111.72C44.256 112.2 44.384 112.52 44.608 112.68C43.936 112.968 43.264 113.128 42.592 113.128C41.984 113.128 41.664 112.744 41.664 111.944L43.968 95.4C44.16 93.64 44.256 92.104 44.288 90.824C45.056 90.6 46.112 90.504 47.424 90.504C48.16 91.72 48.736 92.936 49.152 94.152L54.688 109.64L59.744 95.368C60.288 93.864 60.736 92.296 61.12 90.664C61.792 90.568 62.848 90.536 64.288 90.536C64.576 91.72 64.864 93.192 65.152 94.952L67.296 110.28C67.488 111.592 67.776 112.392 68.192 112.68C67.584 112.968 66.816 113.128 65.888 113.128C65.024 113.128 64.512 112.456 64.352 111.144ZM78.2725 111.144V95.464C78.2725 93.896 78.1765 92.36 77.9525 90.856C78.6885 90.632 79.7125 90.536 81.0565 90.536C81.2165 91.784 81.2805 93.256 81.2805 94.952V110.28C81.2805 111.592 81.4405 112.392 81.7925 112.68C81.1205 112.968 80.3525 113.128 79.4885 113.128C79.1045 113.128 78.8165 113 78.5925 112.712C78.3685 112.424 78.2725 111.912 78.2725 111.144ZM104.862 102.376L97.7582 102.408C96.8942 102.408 96.2542 102.408 95.8382 102.44V111.272C96.1582 111.24 96.6382 111.24 97.2462 111.24H105.15C106.494 111.24 107.294 111.112 107.582 110.888C107.87 111.24 108.03 111.688 108.03 112.232C108.03 112.744 107.358 113 106.046 113H97.7262C96.0942 113 94.5582 113.064 93.1182 113.224C92.9262 112.744 92.8302 112.136 92.8302 111.432V95.464C92.8302 93.864 92.7342 92.328 92.5102 90.824C93.7582 90.664 95.2302 90.6 96.9262 90.6H104.798C106.142 90.6 106.974 90.504 107.262 90.312C107.55 90.664 107.678 91.112 107.678 91.624C107.678 92.136 107.038 92.392 105.726 92.392H97.4062C96.6382 92.392 96.0622 92.392 95.7102 92.424C95.7742 93.256 95.8062 94.12 95.8062 95.016V100.616C96.0942 100.584 96.5742 100.584 97.2142 100.584H103.998C105.31 100.584 106.11 100.52 106.398 100.36C106.686 100.68 106.846 101.096 106.846 101.64C106.846 102.12 106.174 102.376 104.862 102.376ZM140.271 111.144L138.063 95.56L132.687 110.28C132.239 111.56 132.015 112.392 132.015 112.776C131.535 113.032 130.895 113.16 130.095 113.16C129.679 113.16 129.327 113.032 129.039 112.744C128.751 112.456 128.463 111.944 128.175 111.176L122.319 95.56L120.303 110.28C120.207 111.144 120.175 111.624 120.175 111.72C120.175 112.2 120.303 112.52 120.527 112.68C119.855 112.968 119.183 113.128 118.511 113.128C117.903 113.128 117.583 112.744 117.583 111.944L119.887 95.4C120.079 93.64 120.175 92.104 120.207 90.824C120.975 90.6 122.031 90.504 123.343 90.504C124.079 91.72 124.655 92.936 125.071 94.152L130.607 109.64L135.663 95.368C136.207 93.864 136.655 92.296 137.039 90.664C137.711 90.568 138.767 90.536 140.207 90.536C140.495 91.72 140.783 93.192 141.071 94.952L143.215 110.28C143.407 111.592 143.695 112.392 144.111 112.68C143.503 112.968 142.735 113.128 141.807 113.128C140.943 113.128 140.431 112.456 140.271 111.144ZM169.327 111.144L167.471 106.44H157.839L156.399 110.248C155.983 111.336 155.759 112.136 155.759 112.68C155.087 112.968 154.415 113.128 153.711 113.128C153.295 113.128 153.071 112.936 153.071 112.584C153.071 112.264 153.199 111.784 153.423 111.144L159.631 95.4C160.207 93.992 160.719 92.456 161.135 90.792C161.903 90.6 162.927 90.504 164.207 90.504C164.687 91.432 165.327 92.904 166.127 94.92L172.175 110.248C172.687 111.56 173.167 112.36 173.647 112.68C173.103 112.968 172.367 113.128 171.439 113.128C170.575 113.128 169.871 112.456 169.327 111.144ZM163.151 95.4H163.183C162.831 94.568 162.639 94.12 162.607 94.056L158.543 104.648H166.767L163.151 95.4ZM183.091 111.144V95.496C183.091 93.928 182.995 92.392 182.771 90.888C183.411 90.728 184.371 90.632 185.651 90.6H190.323C192.595 90.6 194.419 91.208 195.795 92.392C197.171 93.576 197.875 95.144 197.875 97.064C197.875 98.568 197.427 99.88 196.563 101C195.699 102.12 194.483 102.92 192.947 103.4L197.267 110.152C198.131 111.528 198.835 112.36 199.379 112.68C198.835 112.968 198.131 113.128 197.267 113.128C196.275 113.128 195.379 112.456 194.579 111.08L189.971 103.816H187.987C187.123 103.816 186.483 103.816 186.067 103.848V110.248C186.067 111.592 186.195 112.392 186.419 112.68C185.811 112.968 185.107 113.128 184.307 113.128C183.923 113.128 183.635 113 183.411 112.744C183.187 112.488 183.091 111.944 183.091 111.144ZM186.035 92.392L186.003 92.424C186.035 93.576 186.067 94.44 186.067 95.048V102.088C186.355 102.056 186.835 102.056 187.475 102.056H190.163C191.539 102.056 192.659 101.608 193.523 100.712C194.387 99.816 194.803 98.664 194.803 97.256C194.803 95.816 194.355 94.632 193.491 93.736C192.627 92.84 191.475 92.392 190.067 92.392H186.035ZM217.189 90.6V90.632C220.165 90.632 222.597 91.624 224.453 93.64C226.309 95.656 227.237 98.28 227.237 101.544C227.237 104.968 226.277 107.72 224.357 109.832C222.437 111.944 219.909 113 216.773 113H213.669C212.037 113 210.501 113.064 209.061 113.224C208.869 112.744 208.773 112.136 208.773 111.432V95.496C208.773 93.928 208.677 92.392 208.453 90.888C209.253 90.696 210.277 90.6 211.525 90.6H217.189ZM211.749 110.28L211.717 111.272C212.005 111.24 212.485 111.24 213.125 111.24H217.029C219.109 111.24 220.773 110.376 222.053 108.648C223.333 106.92 223.973 104.68 223.973 101.896C223.973 99.08 223.333 96.808 222.021 95.048C220.709 93.288 219.013 92.424 216.901 92.424H211.685C211.717 93.576 211.749 94.44 211.749 95.048V110.28ZM239.299 107.848L239.235 107.976C239.587 109.096 240.195 109.96 241.027 110.568C241.859 111.176 242.883 111.464 244.099 111.464C245.475 111.464 246.627 111.112 247.523 110.408C248.419 109.704 248.867 108.744 248.867 107.56C248.867 106.504 248.451 105.608 247.651 104.872C246.851 104.136 245.859 103.56 244.707 103.112C243.555 102.664 242.403 102.184 241.251 101.704C240.099 101.224 239.107 100.52 238.307 99.624C237.507 98.728 237.091 97.64 237.091 96.36C237.091 94.632 237.763 93.224 239.075 92.136C240.387 91.048 242.211 90.504 244.547 90.504C246.499 90.504 248.099 90.888 249.347 91.688C250.595 92.488 251.235 93.288 251.235 94.12C251.235 94.568 251.043 94.888 250.627 95.08C250.211 95.272 249.571 95.368 248.707 95.368C248.387 94.472 247.843 93.736 247.075 93.16C246.307 92.584 245.411 92.296 244.387 92.296C243.139 92.296 242.083 92.68 241.219 93.416C240.355 94.152 239.939 95.08 239.939 96.168C239.939 97 240.227 97.704 240.803 98.312C241.379 98.92 242.115 99.4 243.011 99.752L245.891 100.904C246.915 101.32 247.875 101.736 248.771 102.184C249.667 102.632 250.403 103.272 250.979 104.136C251.555 105 251.843 105.992 251.843 107.144C251.843 109 251.139 110.472 249.731 111.56C248.323 112.648 246.403 113.192 243.939 113.192C241.795 113.192 240.067 112.776 238.755 111.944C237.443 111.112 236.771 110.248 236.771 109.352C236.771 108.36 237.603 107.848 239.299 107.848Z" fill="current"/>
<path d="M9.93182 252V237.455H18.3693V238.648H11.2599V244.124H17.9219V245.317H11.2599V250.807H18.5114V252H9.93182ZM33.1349 237.455V252H31.8423L23.2486 239.82H23.1349V252H21.8068V237.455H23.0923L31.7145 249.649H31.8281V237.455H33.1349ZM47.0661 242C46.9335 241.517 46.7393 241.065 46.4837 240.643C46.228 240.217 45.9107 239.846 45.532 239.528C45.1579 239.206 44.7247 238.955 44.2322 238.776C43.7446 238.596 43.2 238.506 42.5987 238.506C41.6518 238.506 40.8042 238.752 40.0561 239.244C39.308 239.737 38.7161 240.447 38.2805 241.375C37.8497 242.303 37.6342 243.42 37.6342 244.727C37.6342 246.029 37.852 247.144 38.2876 248.072C38.7232 249 39.3198 249.713 40.0774 250.21C40.8397 250.703 41.7109 250.949 42.6911 250.949C43.5859 250.949 44.3767 250.75 45.0632 250.352C45.7498 249.955 46.2848 249.386 46.6683 248.648C47.0566 247.909 47.246 247.031 47.2365 246.013L47.6626 246.148H43.0036V244.955H48.5291V246.148C48.5291 247.388 48.2782 248.461 47.7763 249.365C47.2744 250.269 46.5855 250.968 45.7095 251.46C44.8336 251.953 43.8274 252.199 42.6911 252.199C41.4221 252.199 40.3118 251.893 39.3601 251.283C38.4084 250.667 37.6674 249.801 37.1371 248.683C36.6115 247.561 36.3487 246.242 36.3487 244.727C36.3487 243.586 36.5002 242.556 36.8033 241.638C37.1063 240.719 37.5348 239.933 38.0888 239.28C38.6475 238.626 39.308 238.127 40.0703 237.781C40.8326 237.431 41.6754 237.256 42.5987 237.256C43.3942 237.256 44.121 237.381 44.7791 237.632C45.442 237.883 46.0244 238.229 46.5263 238.669C47.0329 239.105 47.4472 239.609 47.7692 240.182C48.0959 240.75 48.3161 241.356 48.4297 242H47.0661ZM51.8263 252V237.455H53.1545V250.807H60.0863V252H51.8263ZM64.4045 237.455V252H63.0763V237.455H64.4045ZM76.1694 241.091C76.0889 240.281 75.7314 239.637 75.0969 239.159C74.4625 238.681 73.6647 238.442 72.7035 238.442C72.0264 238.442 71.4298 238.558 70.9137 238.79C70.4023 239.022 69.9999 239.344 69.7063 239.756C69.4175 240.163 69.2731 240.627 69.2731 241.148C69.2731 241.531 69.3559 241.867 69.5217 242.156C69.6874 242.445 69.9099 242.694 70.1893 242.902C70.4734 243.106 70.7859 243.281 71.1268 243.428C71.4724 243.574 71.8204 243.697 72.1708 243.797L73.7049 244.237C74.1689 244.365 74.6329 244.528 75.0969 244.727C75.561 244.926 75.9847 245.177 76.3683 245.48C76.7565 245.778 77.0666 246.145 77.2987 246.581C77.5354 247.012 77.6538 247.53 77.6538 248.136C77.6538 248.913 77.4525 249.611 77.0501 250.232C76.6476 250.852 76.07 251.344 75.3171 251.709C74.5643 252.069 73.6623 252.249 72.6112 252.249C71.6216 252.249 70.7622 252.085 70.033 251.759C69.3039 251.427 68.7309 250.97 68.3143 250.388C67.8976 249.805 67.6632 249.131 67.6112 248.364H68.9748C69.0221 248.937 69.2115 249.422 69.543 249.82C69.8744 250.217 70.3053 250.52 70.8356 250.729C71.3659 250.932 71.9577 251.034 72.6112 251.034C73.3356 251.034 73.9795 250.913 74.543 250.672C75.1112 250.426 75.5562 250.085 75.8782 249.649C76.2049 249.209 76.3683 248.697 76.3683 248.115C76.3683 247.623 76.2404 247.211 75.9847 246.879C75.729 246.543 75.3716 246.261 74.9123 246.034C74.4577 245.807 73.9298 245.606 73.3285 245.43L71.5884 244.919C70.4473 244.578 69.5619 244.107 68.9322 243.506C68.3024 242.904 67.9876 242.137 67.9876 241.205C67.9876 240.423 68.1959 239.737 68.6126 239.145C69.034 238.548 69.6022 238.084 70.3171 237.753C71.0368 237.417 71.8441 237.249 72.739 237.249C73.6433 237.249 74.4435 237.414 75.1396 237.746C75.8356 238.077 76.3872 238.534 76.7944 239.116C77.2063 239.694 77.4265 240.352 77.4549 241.091H76.1694ZM80.8498 252V237.455H82.1779V244.124H90.4308V237.455H91.7589V252H90.4308V245.317H82.1779V252H80.8498ZM109.138 241.091C109.058 240.281 108.7 239.637 108.066 239.159C107.431 238.681 106.633 238.442 105.672 238.442C104.995 238.442 104.399 238.558 103.882 238.79C103.371 239.022 102.969 239.344 102.675 239.756C102.386 240.163 102.242 240.627 102.242 241.148C102.242 241.531 102.325 241.867 102.49 242.156C102.656 242.445 102.879 242.694 103.158 242.902C103.442 243.106 103.755 243.281 104.096 243.428C104.441 243.574 104.789 243.697 105.14 243.797L106.674 244.237C107.138 244.365 107.602 244.528 108.066 244.727C108.53 244.926 108.953 245.177 109.337 245.48C109.725 245.778 110.035 246.145 110.267 246.581C110.504 247.012 110.623 247.53 110.623 248.136C110.623 248.913 110.421 249.611 110.019 250.232C109.616 250.852 109.039 251.344 108.286 251.709C107.533 252.069 106.631 252.249 105.58 252.249C104.59 252.249 103.731 252.085 103.002 251.759C102.273 251.427 101.7 250.97 101.283 250.388C100.866 249.805 100.632 249.131 100.58 248.364H101.944C101.991 248.937 102.18 249.422 102.512 249.82C102.843 250.217 103.274 250.52 103.804 250.729C104.335 250.932 104.926 251.034 105.58 251.034C106.304 251.034 106.948 250.913 107.512 250.672C108.08 250.426 108.525 250.085 108.847 249.649C109.174 249.209 109.337 248.697 109.337 248.115C109.337 247.623 109.209 247.211 108.953 246.879C108.698 246.543 108.34 246.261 107.881 246.034C107.426 245.807 106.899 245.606 106.297 245.43L104.557 244.919C103.416 244.578 102.531 244.107 101.901 243.506C101.271 242.904 100.956 242.137 100.956 241.205C100.956 240.423 101.165 239.737 101.581 239.145C102.003 238.548 102.571 238.084 103.286 237.753C104.006 237.417 104.813 237.249 105.708 237.249C106.612 237.249 107.412 237.414 108.108 237.746C108.804 238.077 109.356 238.534 109.763 239.116C110.175 239.694 110.395 240.352 110.424 241.091H109.138ZM113.819 252V237.455H118.513C119.545 237.455 120.407 237.653 121.098 238.051C121.794 238.444 122.318 238.979 122.668 239.656C123.023 240.333 123.201 241.096 123.201 241.943C123.201 242.791 123.025 243.555 122.675 244.237C122.325 244.914 121.804 245.452 121.113 245.849C120.421 246.242 119.562 246.439 118.534 246.439H114.841V245.246H118.499C119.261 245.246 119.893 245.104 120.395 244.82C120.897 244.531 121.271 244.138 121.517 243.641C121.768 243.143 121.894 242.578 121.894 241.943C121.894 241.309 121.768 240.743 121.517 240.246C121.271 239.749 120.895 239.358 120.388 239.074C119.886 238.79 119.249 238.648 118.478 238.648H115.147V252H113.819ZM126.319 252V237.455H134.756V238.648H127.647V244.124H134.309V245.317H127.647V250.807H134.898V252H126.319ZM138.215 252H136.823L142.114 237.455H143.534L148.826 252H147.434L142.874 239.18H142.775L138.215 252ZM139.216 246.425H146.432V247.618H139.216V246.425ZM151.319 252V237.455H152.647V245.288H152.775L159.877 237.455H161.624L155.409 244.18L161.596 252H159.976L154.586 245.104L152.647 247.277V252H151.319ZM165.459 237.455V252H164.131V237.455H165.459ZM180.654 237.455V252H179.362L170.768 239.82H170.654V252H169.326V237.455H170.612L179.234 249.649H179.348V237.455H180.654ZM194.586 242C194.453 241.517 194.259 241.065 194.003 240.643C193.748 240.217 193.43 239.846 193.051 239.528C192.677 239.206 192.244 238.955 191.752 238.776C191.264 238.596 190.72 238.506 190.118 238.506C189.171 238.506 188.324 238.752 187.576 239.244C186.828 239.737 186.236 240.447 185.8 241.375C185.369 242.303 185.154 243.42 185.154 244.727C185.154 246.029 185.372 247.144 185.807 248.072C186.243 249 186.839 249.713 187.597 250.21C188.359 250.703 189.23 250.949 190.211 250.949C191.105 250.949 191.896 250.75 192.583 250.352C193.269 249.955 193.804 249.386 194.188 248.648C194.576 247.909 194.766 247.031 194.756 246.013L195.182 246.148H190.523V244.955H196.049V246.148C196.049 247.388 195.798 248.461 195.296 249.365C194.794 250.269 194.105 250.968 193.229 251.46C192.353 251.953 191.347 252.199 190.211 252.199C188.942 252.199 187.831 251.893 186.88 251.283C185.928 250.667 185.187 249.801 184.657 248.683C184.131 247.561 183.868 246.242 183.868 244.727C183.868 243.586 184.02 242.556 184.323 241.638C184.626 240.719 185.054 239.933 185.608 239.28C186.167 238.626 186.828 238.127 187.59 237.781C188.352 237.431 189.195 237.256 190.118 237.256C190.914 237.256 191.641 237.381 192.299 237.632C192.962 237.883 193.544 238.229 194.046 238.669C194.552 239.105 194.967 239.609 195.289 240.182C195.615 240.75 195.836 241.356 195.949 242H194.586ZM204.09 238.648V237.455H214.637V238.648H210.028V252H208.7V238.648H204.09ZM217.627 252V237.455H222.322C223.354 237.455 224.216 237.642 224.907 238.016C225.603 238.385 226.126 238.899 226.477 239.557C226.832 240.21 227.009 240.961 227.009 241.808C227.009 242.656 226.832 243.404 226.477 244.053C226.126 244.701 225.605 245.208 224.914 245.572C224.223 245.937 223.366 246.119 222.343 246.119H218.344V244.905H222.308C223.065 244.905 223.695 244.779 224.197 244.528C224.703 244.277 225.08 243.92 225.326 243.456C225.577 242.992 225.702 242.443 225.702 241.808C225.702 241.174 225.577 240.62 225.326 240.146C225.075 239.668 224.696 239.299 224.19 239.038C223.688 238.778 223.053 238.648 222.286 238.648H218.955V252H217.627ZM224.04 245.438L227.62 252H226.086L222.542 245.438H224.04ZM230.266 252H228.874L234.165 237.455H235.585L240.876 252H239.484L234.925 239.18H234.825L230.266 252ZM231.267 246.425H238.483V247.618H231.267V246.425ZM244.697 237.455V252H243.369V237.455H244.697ZM259.893 237.455V252H258.6L250.006 239.82H249.893V252H248.565V237.455H249.85L258.472 249.649H258.586V237.455H259.893ZM263.76 252V237.455H272.197V238.648H265.088V244.124H271.75V245.317H265.088V250.807H272.339V252H263.76ZM275.635 252V237.455H280.33C281.362 237.455 282.223 237.642 282.915 238.016C283.611 238.385 284.134 238.899 284.484 239.557C284.839 240.21 285.017 240.961 285.017 241.808C285.017 242.656 284.839 243.404 284.484 244.053C284.134 244.701 283.613 245.208 282.922 245.572C282.231 245.937 281.374 246.119 280.351 246.119H276.352V244.905H280.315C281.073 244.905 281.703 244.779 282.205 244.528C282.711 244.277 283.088 243.92 283.334 243.456C283.585 242.992 283.71 242.443 283.71 241.808C283.71 241.174 283.585 240.62 283.334 240.146C283.083 239.668 282.704 239.299 282.197 239.038C281.696 238.778 281.061 238.648 280.294 238.648H276.963V252H275.635ZM282.048 245.438L285.628 252H284.094L280.55 245.438H282.048Z" fill="current"/>
<path fill-rule="evenodd" clip-rule="evenodd" d="M100.473 125L136.754 204H141.588L177.799 125H163.626L147.301 160.787L130.706 125H100.473ZM59.9961 125V169.576C59.9961 181.783 61.3145 189.4 63.9512 192.428C67.5645 196.529 73.2773 198.58 81.0898 198.58H88.1211V204H18.9805V198.58H26.0117C34.4102 198.58 40.3672 196.041 43.8828 190.963C46.0312 187.838 47.1055 180.709 47.1055 169.576V125H59.9961ZM80.2666 81L59.9961 36.8613V81H47.1055V39.791C47.1055 31.002 46.1289 24.6543 44.1758 20.748C42.8086 17.916 40.2695 15.5723 36.5586 13.7168C32.9453 11.7637 27.0859 10.7871 18.9805 10.7871V5.36719H75.2305L110.302 81H80.2666ZM183.698 81H197.967L218.199 36.8613V81H246.324V39.791C246.324 28.6582 247.398 21.5293 249.547 18.4043C253.062 13.3262 259.068 10.7871 267.564 10.7871H274.449V5.36719H218.199L183.698 81ZM246.324 125H218.199V169.576C218.199 180.709 217.125 187.838 214.977 190.963C211.559 196.041 205.602 198.58 197.105 198.58H190.074V204H274.449V198.58H267.564C259.752 198.58 254.039 196.529 250.426 192.428C247.691 189.4 246.324 181.783 246.324 169.576V125Z" fill="current"/>
</svg>
