<svg width="750" height="510" viewBox="0 0 750 510" fill="#82C3FF" xmlns="http://www.w3.org/2000/svg">
<g clip-path="url(#clip0_173_26351)">
<path d="M371.097 -200.004C329.121 -308.307 175.879 -308.307 133.903 -200.004C115.857 -153.442 72.2332 -121.748 22.3733 -118.973C-93.6006 -112.519 -140.955 33.2229 -50.9236 106.612C-12.217 138.164 4.44562 189.446 -8.32306 237.723C-38.023 350.015 85.9525 440.089 183.571 377.142C225.539 350.08 279.461 350.08 321.429 377.142C419.047 440.089 543.023 350.015 513.323 237.723C500.554 189.446 517.217 138.164 555.924 106.612C645.955 33.2229 598.601 -112.519 482.627 -118.973C432.767 -121.748 389.143 -153.442 371.097 -200.004Z" fill="" fill-opacity="0.15"/>
<path d="M340.561 -438.709C278.433 -510.957 166.567 -510.957 104.439 -438.709L19.4768 -339.91C3.68671 -321.548 -16.1685 -307.122 -38.5111 -297.779L-158.73 -247.506C-246.64 -210.744 -281.209 -104.353 -231.696 -22.94L-163.986 88.3943C-151.403 109.086 -143.819 132.427 -141.837 156.563L-131.174 286.433C-123.378 381.401 -32.8758 447.154 59.853 425.223L187.034 395.143C210.363 389.626 234.65 389.569 258.004 394.977L338.777 413.684C415.84 431.531 494.037 388.763 520.587 314.25L584.498 134.881C588.057 124.893 592.627 115.294 598.137 106.234L676.696 -22.9401C726.209 -104.353 691.64 -210.744 603.73 -247.506L483.511 -297.779C461.168 -307.122 441.313 -321.548 425.523 -339.91L340.561 -438.709Z" fill="current" fill-opacity="0.1"/>
<path d="M341.097 -281.004C299.121 -389.307 145.879 -389.307 103.903 -281.004C85.8566 -234.442 42.2333 -202.748 -7.62665 -199.973C-123.601 -193.519 -170.955 -47.7771 -80.9236 25.6119C-42.217 57.1636 -25.5544 108.446 -38.3231 156.723C-68.023 269.015 55.9525 359.089 153.571 296.142L158.296 293.095C197.809 267.616 248.155 266.012 289.21 288.924L312.389 301.861C409.551 356.085 522.777 262.955 488.318 157.157C472.669 109.109 488.532 56.0914 527.701 24.1635C616.613 -48.3131 567.981 -193.554 453.449 -199.927C403.59 -202.702 359.143 -234.442 341.097 -281.004Z" fill="current" fill-opacity="0.15"/>
<path d="M305.632 -296.395C265.767 -399.251 120.233 -399.251 80.3683 -296.395C63.2296 -252.175 21.8004 -222.075 -25.5517 -219.44C-135.692 -213.311 -180.665 -74.8992 -95.1619 -5.20148C-58.4022 24.7632 -42.5776 73.4661 -54.7041 119.315C-82.9102 225.959 34.8297 311.502 127.538 251.721L138.129 244.892C172.527 222.711 215.572 218.67 253.497 234.06L332.837 266.257C423.471 303.037 510.016 205.5 462.711 119.887C438.438 75.9573 449.076 20.9529 487.979 -10.7584L494.628 -16.1783C575.365 -81.9908 532.899 -212.687 428.898 -218.474L411.552 -219.44C364.2 -222.075 322.77 -252.175 305.632 -296.395Z" fill="current" fill-opacity="0.15"/>
<path d="M344.632 -344.395C304.767 -447.251 159.233 -447.251 119.368 -344.395C102.23 -300.175 60.8004 -270.075 13.4483 -267.44C-96.6923 -261.311 -141.665 -122.899 -56.1619 -53.2015C-19.4022 -23.2368 -3.57764 25.4661 -15.7041 71.3149C-43.9102 177.959 73.8296 263.502 166.538 203.721C206.395 178.02 257.605 178.02 297.462 203.721C390.17 263.502 507.91 177.959 479.704 71.3149C467.578 25.4661 483.402 -23.2368 520.162 -53.2015C605.665 -122.899 560.692 -261.311 450.552 -267.44C403.2 -270.075 361.77 -300.175 344.632 -344.395Z" fill="current" fill-opacity="0.15"/>
<path d="M265.632 -416.395C225.767 -519.251 80.2328 -519.251 40.3683 -416.395C23.2296 -372.175 -18.1996 -342.075 -65.5517 -339.44C-175.692 -333.311 -220.665 -194.899 -135.162 -125.201C-98.4022 -95.2368 -82.5776 -46.5339 -94.7041 -0.68512C-122.91 105.959 -5.17035 191.502 87.538 131.721L106.16 119.713C136.016 100.461 172.564 94.5729 206.956 103.473L356.077 142.065C442.738 164.492 505.41 60.3567 445.016 -5.71759C410.147 -43.8663 414.518 -103.483 454.578 -136.138L468.613 -147.578C544.4 -209.356 504.538 -332.039 406.913 -337.472L371.552 -339.44C324.2 -342.075 282.77 -372.175 265.632 -416.395Z" fill="current" fill-opacity="0.15"/>
</g>
<g clip-path="url(#clip1_173_26351)">
<path d="M378.903 -200.004C420.879 -308.307 574.121 -308.307 616.097 -200.004C634.143 -153.442 677.767 -121.748 727.627 -118.973C843.601 -112.519 890.955 33.2229 800.924 106.612C762.217 138.164 745.554 189.446 758.323 237.723C788.023 350.015 664.047 440.089 566.429 377.142C524.461 350.08 470.539 350.08 428.571 377.142C330.953 440.089 206.977 350.015 236.677 237.723C249.446 189.446 232.783 138.164 194.076 106.612C104.045 33.2229 151.399 -112.519 267.373 -118.973C317.233 -121.748 360.857 -153.442 378.903 -200.004Z" fill="current" fill-opacity="0.15"/>
<path d="M409.439 -438.709C471.567 -510.957 583.433 -510.957 645.561 -438.709L730.523 -339.91C746.313 -321.548 766.169 -307.122 788.511 -297.779L908.73 -247.506C996.64 -210.744 1031.21 -104.353 981.696 -22.94L913.986 88.3943C901.403 109.086 893.819 132.427 891.837 156.563L881.174 286.433C873.378 381.401 782.876 447.154 690.147 425.223L562.966 395.143C539.637 389.626 515.35 389.569 491.996 394.977L411.223 413.684C334.16 431.531 255.963 388.763 229.413 314.25L165.502 134.881C161.943 124.893 157.373 115.294 151.863 106.234L73.304 -22.9401C23.7914 -104.353 58.36 -210.744 146.27 -247.506L266.489 -297.779C288.832 -307.122 308.687 -321.548 324.477 -339.91L409.439 -438.709Z" fill="current" fill-opacity="0.1"/>
<path d="M408.903 -281.004C450.879 -389.307 604.121 -389.307 646.097 -281.004C664.143 -234.442 707.767 -202.748 757.627 -199.973C873.601 -193.519 920.955 -47.7771 830.924 25.6119C792.217 57.1636 775.554 108.446 788.323 156.723C818.023 269.015 694.047 359.089 596.429 296.142L591.704 293.095C552.191 267.616 501.845 266.012 460.79 288.924L437.611 301.861C340.449 356.085 227.223 262.955 261.682 157.157C277.331 109.109 261.468 56.0914 222.299 24.1635C133.387 -48.3131 182.019 -193.554 296.551 -199.927C346.41 -202.702 390.857 -234.442 408.903 -281.004Z" fill="current" fill-opacity="0.15"/>
<path d="M444.368 -296.395C484.233 -399.251 629.767 -399.251 669.632 -296.395C686.77 -252.175 728.2 -222.075 775.552 -219.44C885.692 -213.311 930.665 -74.8992 845.162 -5.20148C808.402 24.7632 792.578 73.4661 804.704 119.315C832.91 225.959 715.17 311.502 622.462 251.721L611.871 244.892C577.472 222.711 534.428 218.67 496.503 234.06L417.163 266.257C326.529 303.037 239.984 205.5 287.289 119.887C311.562 75.9573 300.923 20.9529 262.021 -10.7584L255.372 -16.1783C174.635 -81.9908 217.101 -212.687 321.102 -218.474L338.448 -219.44C385.8 -222.075 427.229 -252.175 444.368 -296.395Z" fill="current" fill-opacity="0.15"/>
<path d="M405.368 -344.395C445.233 -447.251 590.767 -447.251 630.632 -344.395C647.77 -300.175 689.2 -270.075 736.552 -267.44C846.692 -261.311 891.665 -122.899 806.162 -53.2015C769.402 -23.2368 753.578 25.4661 765.704 71.3149C793.91 177.959 676.17 263.502 583.462 203.721C543.605 178.02 492.395 178.02 452.538 203.721C359.83 263.502 242.09 177.959 270.296 71.3149C282.422 25.4661 266.598 -23.2368 229.838 -53.2015C144.335 -122.899 189.308 -261.311 299.448 -267.44C346.8 -270.075 388.23 -300.175 405.368 -344.395Z" fill="current" fill-opacity="0.15"/>
<path d="M484.368 -416.395C524.233 -519.251 669.767 -519.251 709.632 -416.395C726.77 -372.175 768.2 -342.075 815.552 -339.44C925.692 -333.311 970.665 -194.899 885.162 -125.201C848.402 -95.2368 832.578 -46.5339 844.704 -0.68512C872.91 105.959 755.17 191.502 662.462 131.721L643.84 119.713C613.984 100.461 577.436 94.5729 543.044 103.473L393.923 142.065C307.261 164.492 244.59 60.3567 304.984 -5.71759C339.853 -43.8663 335.482 -103.483 295.422 -136.138L281.387 -147.578C205.6 -209.356 245.462 -332.039 343.087 -337.472L378.448 -339.44C425.8 -342.075 467.229 -372.175 484.368 -416.395Z" fill="current" fill-opacity="0.15"/>
</g>
<defs>
<clipPath id="clip0_173_26351">
<rect width="375" height="510" fill="white" transform="matrix(-1 0 0 1 375 0)"/>
</clipPath>
<clipPath id="clip1_173_26351">
<rect width="375" height="510" fill="white" transform="translate(375)"/>
</clipPath>
</defs>
</svg>
